<?xml version="1.0" encoding="UTF-8"?>
<svg id="Layer_1" xmlns="http://www.w3.org/2000/svg" version="1.1" viewBox="0 0 612 792">
  <!-- Generator: Adobe Illustrator 29.2.0, SVG Export Plug-In . SVG Version: 2.1.0 Build 108)  -->
  <defs>
    <style>
      .st0 {
        fill: #231f20;
      }
    </style>
  </defs>
  <g>
    <path class="st0" d="M227.85,326.65c-.27,2.44-1.58,13.92-17.91,13.92s-18.85-11.98-18.85-23.9c0-14.37,5.46-23.55,19.54-23.55,15.8,0,16.92,10.43,17.14,13.81h-9.5c-.15-1.56-.38-7.68-7.8-7.68-7.87,0-9.48,7.55-9.48,17.53,0,9.03,1.25,17.74,9.13,17.74,7.12,0,7.89-5.92,8.17-7.88h9.56Z"/>
    <path class="st0" d="M234.85,300.39h8.2v15.94h14.21v-15.94h8.2v39.42h-8.2v-18.13h-14.21v18.13h-8.2v-39.42Z"/>
    <path class="st0" d="M281.95,329l-3.03,10.8h-8.2s12.39-39.42,12.39-39.42h10.63l12.61,39.42h-8.62l-3.06-10.8h-12.71ZM293.15,323.66c-2.34-8.27-4.05-14.01-4.84-17.56h-.21c-.67,3.56-2.5,9.88-4.67,17.56h9.71Z"/>
    <path class="st0" d="M311.19,300.39h15.09c8.56,0,14.81,3.9,14.81,11.47s-5.65,11.57-15.58,11.57h-6.11v16.38h-8.2v-39.42ZM319.39,318.45h5.2c5.61,0,8.25-2.13,8.25-6.68,0-4.08-2.83-6.37-7.69-6.37h-5.76v13.04Z"/>
    <path class="st0" d="M355.56,305.78h-11.43v-5.39h31.07v5.39h-11.43v34.03h-8.2v-34.03Z"/>
    <path class="st0" d="M405.69,321.81h-17.15v12.69h19.18l-1.04,5.3h-26.24v-39.42h26.07v5.39h-17.98v10.69h17.15v5.35Z"/>
    <path class="st0" d="M421.75,322.54v17.26h-8.15v-39.42h15.33c9.33,0,14.49,3.74,14.49,10.57,0,5.77-4.01,8.24-6.91,9.06,4.36,1.39,6.15,4.19,6.15,9.91v1.57c0,4.2.24,6.2.72,8.31h-7.98c-.76-1.8-.86-5.05-.86-8.38v-1.4c0-5.39-1.59-7.48-7.94-7.48h-4.85ZM421.75,317.52h5.22c5.94,0,8.24-2.13,8.24-6.32,0-3.59-2.26-5.79-7.44-5.79h-6.02v12.11Z"/>
  </g>
  <g>
    <path class="st0" d="M207.08,265.34h46.79l2.81-13.22h6.99v25.54h-72.01v-9.8c22.69-18.44,37.28-31.89,43.79-40.36,6.51-8.46,9.76-16.69,9.76-24.7,0-7.35-1.84-13.1-5.51-17.25-3.67-4.15-8.75-6.23-15.23-6.23-2.43,0-4.79.3-7.06.91-2.28.61-4.53,1.55-6.76,2.81v16.64c-1.11.76-2.25,1.34-3.42,1.75-1.17.41-2.35.61-3.57.61-2.68,0-4.81-.78-6.38-2.36-1.57-1.57-2.35-3.7-2.35-6.38,0-5.83,3.23-10.94,9.68-15.35,6.46-4.41,14.22-6.61,23.28-6.61,9.87,0,17.74,2.67,23.59,8.02,5.85,5.35,8.77,12.48,8.77,21.39,0,8.21-3.56,16.8-10.67,25.76-7.12,8.97-21.28,21.91-42.5,38.84Z"/>
    <path class="st0" d="M276.12,277.65v-5.62l8.43-.76,2.66-2.51v-56.32h-11.09v-4.86l18.08-5.55h5.92v8.51c6.23-3.44,11.24-5.86,15.04-7.26,3.8-1.39,7.14-2.09,10.03-2.09,6.79,0,11.98,2.03,15.57,6.08,3.59,4.05,5.39,9.93,5.39,17.63v43.85l2.66,2.51,8.36.76v5.62h-34.03v-5.62l7.44-.76,2.66-2.51v-41.19c0-5.83-1.2-9.96-3.61-12.39-2.41-2.43-6.44-3.65-12.12-3.65-2.48,0-5.17.42-8.05,1.25-2.89.84-6,2.12-9.34,3.84v52.14l2.66,2.51,7.44.76v5.62h-34.11Z"/>
    <path class="st0" d="M419.22,173.53h-11.93v-4.86l18.99-5.55h5.85v105.64l2.66,2.51,7.44.76v5.62h-23.02v-8.06c-4.05,3.24-8,5.62-11.85,7.14-3.85,1.52-7.87,2.28-12.08,2.28-8.71,0-15.89-3.41-21.53-10.22-5.65-6.81-8.47-15.54-8.47-26.18,0-12.36,3.71-22.38,11.13-30.06,7.42-7.68,17.08-11.51,28.98-11.51,2.08,0,4.28.15,6.61.46,2.33.3,4.73.74,7.22,1.29v-29.26ZM419.22,263.82v-53.43c-2.84-.81-5.38-1.43-7.63-1.86-2.25-.43-4.27-.65-6.04-.65-7.95,0-14.37,2.94-19.26,8.82-4.89,5.88-7.33,13.63-7.33,23.26,0,8.97,2.11,16.09,6.34,21.36,4.23,5.27,9.89,7.9,16.98,7.9,2.73,0,5.51-.44,8.32-1.33,2.81-.89,5.68-2.24,8.62-4.07Z"/>
  </g>
</svg>